<svg width="16" height="16" viewBox="0 0 16 16" fill="none" xmlns="http://www.w3.org/2000/svg">
<path d="M5.65137 2.34863H2.51172C2.16492 2.34863 1.88379 2.62977 1.88379 2.97656V6.11621C1.88379 6.46301 2.16492 6.74414 2.51172 6.74414H5.65137C5.99816 6.74414 6.2793 6.46301 6.2793 6.11621V2.97656C6.2793 2.62977 5.99816 2.34863 5.65137 2.34863Z" stroke="#4B5563" stroke-width="1.2" stroke-linecap="round" stroke-linejoin="round"/>
<path d="M5.65137 9.25586H2.51172C2.16492 9.25586 1.88379 9.53699 1.88379 9.88379V13.0234C1.88379 13.3702 2.16492 13.6514 2.51172 13.6514H5.65137C5.99816 13.6514 6.2793 13.3702 6.2793 13.0234V9.88379C6.2793 9.53699 5.99816 9.25586 5.65137 9.25586Z" stroke="#4B5563" stroke-width="1.2" stroke-linecap="round" stroke-linejoin="round"/>
<path d="M8.79102 2.97656H13.1865" stroke="#4B5563" stroke-width="1.2" stroke-linecap="round" stroke-linejoin="round"/>
<path d="M8.79102 6.11621H13.1865" stroke="#4B5563" stroke-width="1.2" stroke-linecap="round" stroke-linejoin="round"/>
<path d="M8.79102 9.88379H13.1865" stroke="#4B5563" stroke-width="1.2" stroke-linecap="round" stroke-linejoin="round"/>
<path d="M8.79102 13.0234H13.1865" stroke="#4B5563" stroke-width="1.2" stroke-linecap="round" stroke-linejoin="round"/>
</svg>
